<svg xmlns="http://www.w3.org/2000/svg" xmlns:xlink="http://www.w3.org/1999/xlink" width="254" zoomAndPan="magnify" viewBox="0 0 190.5 177.749994" height="237" preserveAspectRatio="xMidYMid meet" version="1.0"><defs><clipPath id="166443466c"><path d="M 0 0.109375 L 189 0.109375 L 189 176.644531 L 0 176.644531 Z M 0 0.109375 " clip-rule="nonzero"/></clipPath></defs><g clip-path="url(#166443466c)"><path fill="#292929" d="M 73.296875 0.109375 C 114.355469 0.109375 146.515625 11.707031 146.515625 26.511719 L 146.515625 31.527344 C 156.054688 26.632812 165.632812 26.199219 173.710938 30.367188 C 182.40625 34.855469 187.765625 43.84375 188.8125 55.675781 C 189.714844 65.929688 187.195312 77.425781 181.714844 88.042969 C 176.238281 98.660156 168.328125 107.375 159.445312 112.578125 C 157.613281 113.648438 155.773438 114.558594 153.929688 115.296875 C 169.945312 122.324219 179.371094 126.75 181.957031 128.46875 C 188.503906 132.828125 189.402344 141.113281 188.058594 147.410156 C 187.273438 151.109375 183.996094 159.71875 170.675781 159.71875 C 168.40625 159.71875 165.8125 159.128906 162.957031 157.972656 C 162.277344 158.0625 161.585938 158.113281 160.875 158.113281 C 158.976562 158.113281 157.09375 157.753906 155.367188 157.070312 C 155.21875 157.199219 155.066406 157.316406 154.90625 157.429688 C 154.144531 157.945312 153.289062 158.199219 152.429688 158.199219 C 151.59375 158.199219 150.753906 157.957031 150.007812 157.464844 L 137.582031 149.324219 C 138.300781 153.488281 138.496094 158.117188 138.148438 163.21875 C 138.121094 163.675781 137.878906 164.09375 137.5 164.355469 C 137.25 164.527344 136.953125 164.617188 136.652344 164.617188 C 136.503906 164.617188 136.355469 164.59375 136.207031 164.546875 C 128.074219 162.007812 120.972656 158.25 115.398438 153.707031 C 115.722656 163.042969 112.175781 170.535156 104.617188 176.527344 C 104.34375 176.742188 104.011719 176.851562 103.683594 176.851562 C 103.335938 176.851562 102.984375 176.730469 102.703125 176.488281 C 96.660156 171.269531 93.25 165.230469 92.386719 157.890625 C 87.449219 167.410156 79.039062 172.855469 67.277344 174.109375 C 67.226562 174.117188 67.171875 174.117188 67.117188 174.117188 C 66.75 174.117188 66.394531 173.984375 66.117188 173.734375 C 65.796875 173.449219 65.617188 173.046875 65.617188 172.617188 C 65.617188 166.375 66.695312 160.402344 68.753906 154.984375 C 64.277344 157.410156 59.699219 158.382812 54.757812 158.382812 C 50.503906 158.382812 45.984375 157.667969 41.023438 156.546875 C 40.597656 156.453125 40.238281 156.179688 40.03125 155.792969 C 39.824219 155.410156 39.796875 154.960938 39.949219 154.550781 C 40.648438 152.71875 41.410156 150.96875 42.242188 149.296875 C 37.222656 146.90625 33.613281 144.328125 31.410156 142.523438 C 29.1875 140.703125 27.917969 137.996094 27.917969 135.101562 L 27.917969 122.890625 C 23.078125 118.320312 18.707031 113.027344 14.964844 107.128906 C 5.222656 91.792969 0.0742188 73.476562 0.0742188 54.160156 L 0.0742188 26.511719 C 0.0742188 11.707031 32.234375 0.109375 73.296875 0.109375 Z M 146.496094 55.605469 C 146.320312 68.449219 143.78125 81.171875 139.09375 92.636719 C 140.144531 92.617188 141.203125 92.617188 142.28125 92.648438 C 142.734375 92.660156 143.160156 92.875 143.433594 93.234375 C 143.710938 93.597656 143.808594 94.066406 143.699219 94.503906 C 143.390625 95.761719 143.054688 96.988281 142.699219 98.183594 C 149.085938 97.847656 158.414062 91.136719 164.574219 79.199219 C 172.527344 63.792969 170.019531 50.523438 164.722656 47.789062 C 161.011719 45.871094 153.609375 47.96875 146.496094 55.605469 Z M 107.214844 120.773438 C 113.007812 119.152344 117.914062 115.953125 121.828125 111.226562 C 122.359375 110.589844 123.300781 110.5 123.9375 111.03125 C 124.578125 111.558594 124.667969 112.503906 124.136719 113.144531 C 119.628906 118.585938 113.921875 122.1875 107.15625 123.890625 C 108.003906 125.351562 108.496094 127.046875 108.496094 128.851562 C 108.496094 129.011719 108.488281 129.167969 108.480469 129.324219 C 124.894531 124.976562 135.335938 113.921875 140.3125 95.621094 C 140.296875 95.621094 140.28125 95.621094 140.261719 95.621094 C 127.648438 95.621094 117.800781 98.863281 110.230469 105.5 C 110.527344 110.316406 109.523438 115.410156 107.214844 120.773438 Z M 70.84375 115.226562 C 71.1875 114.472656 72.078125 114.144531 72.832031 114.488281 L 90.769531 122.730469 C 91.265625 122.101562 91.835938 121.53125 92.46875 121.039062 C 82.695312 106.78125 67.808594 103.074219 48.171875 110.019531 C 56.28125 124.503906 76.375 127.167969 88.761719 127.34375 C 88.867188 126.652344 89.046875 125.984375 89.285156 125.351562 L 71.578125 117.214844 C 70.824219 116.871094 70.496094 115.976562 70.84375 115.226562 Z M 87.785156 111.34375 C 90.46875 113.597656 92.902344 116.34375 95.085938 119.566406 C 95.738281 119.316406 96.414062 119.140625 97.125 119.035156 C 97.253906 112.917969 95.953125 106.742188 93.164062 100.203125 C 92.839844 99.445312 93.191406 98.5625 93.953125 98.238281 C 94.71875 97.910156 95.597656 98.265625 95.921875 99.027344 C 98.878906 105.949219 100.253906 112.519531 100.121094 119.050781 C 101.546875 119.277344 102.871094 119.804688 104.027344 120.570312 C 111.003906 105.398438 106.828125 92.949219 91.296875 82.589844 C 86.390625 91.007812 85.214844 100.671875 87.785156 111.34375 Z M 156.765625 152.921875 C 156.863281 153.425781 156.875 153.929688 156.808594 154.417969 C 158.09375 154.875 159.476562 155.113281 160.875 155.113281 C 166.828125 155.113281 171.667969 150.867188 171.667969 145.644531 C 171.667969 140.429688 166.828125 136.175781 160.875 136.175781 C 160.726562 136.175781 160.570312 136.191406 160.417969 136.195312 C 159.03125 137.511719 157.9375 139.042969 157.21875 140.757812 C 155.941406 143.78125 155.785156 147.988281 156.765625 152.921875 Z M 136.636719 145.117188 L 151.652344 154.957031 C 152.386719 155.4375 153.042969 155.070312 153.226562 154.945312 C 153.410156 154.820312 153.988281 154.351562 153.820312 153.503906 C 152.710938 147.90625 152.925781 143.226562 154.449219 139.597656 C 157.355469 132.6875 165.097656 128.316406 174.386719 127.863281 C 169.839844 125.664062 162.234375 122.1875 149.679688 116.707031 C 147.042969 117.40625 144.433594 117.757812 141.882812 117.757812 C 139.070312 117.757812 136.332031 117.332031 133.726562 116.46875 C 133.261719 117.070312 132.78125 117.660156 132.289062 118.234375 L 153.519531 129.019531 C 154.257812 129.394531 154.546875 130.296875 154.171875 131.035156 C 153.910156 131.554688 153.382812 131.855469 152.835938 131.855469 C 152.605469 131.855469 152.378906 131.804688 152.15625 131.691406 L 130.183594 120.523438 C 129.074219 121.644531 127.910156 122.699219 126.683594 123.683594 L 144.269531 133.367188 C 144.996094 133.765625 145.261719 134.679688 144.863281 135.402344 C 144.589844 135.898438 144.074219 136.179688 143.546875 136.179688 C 143.304688 136.179688 143.054688 136.121094 142.824219 135.992188 L 124.03125 125.644531 C 123.378906 126.089844 122.710938 126.515625 122.03125 126.925781 C 129.386719 130.683594 134.261719 136.769531 136.636719 145.117188 Z M 135.261719 161.085938 C 135.960938 144.332031 130.546875 133.726562 118.765625 128.710938 C 116.519531 129.820312 114.121094 130.765625 111.589844 131.550781 C 118.003906 134.441406 123.28125 139.285156 127.292969 145.996094 C 127.722656 146.710938 127.488281 147.628906 126.78125 148.054688 C 126.535156 148.199219 126.269531 148.269531 126.011719 148.269531 C 125.503906 148.269531 125.003906 148.007812 124.722656 147.539062 C 120.386719 140.292969 114.746094 135.585938 107.503906 133.171875 C 107.109375 133.988281 106.601562 134.742188 106.007812 135.414062 C 108.9375 146.175781 119.980469 155.851562 135.261719 161.085938 Z M 103.722656 173.375 C 110.644531 167.472656 113.332031 160.261719 112.160156 150.816406 C 108.039062 146.765625 105.054688 142.234375 103.492188 137.464844 C 102.65625 137.945312 101.746094 138.304688 100.777344 138.527344 C 103.152344 144.171875 104.292969 150.785156 104.164062 158.222656 C 104.152344 159.039062 103.480469 159.695312 102.667969 159.695312 C 102.65625 159.695312 102.648438 159.695312 102.640625 159.695312 C 101.8125 159.679688 101.152344 158.996094 101.167969 158.167969 C 101.292969 150.90625 100.152344 144.511719 97.78125 139.136719 C 92.972656 154.457031 94.824219 165.121094 103.722656 173.375 Z M 68.648438 170.917969 C 81.042969 169.089844 88.824219 162.125 92.410156 149.664062 C 92.800781 146.089844 93.652344 142.25 94.964844 138.097656 C 93.917969 137.683594 92.957031 137.101562 92.117188 136.382812 C 90.320312 143.34375 86.382812 150.238281 80.378906 156.914062 C 80.082031 157.242188 79.675781 157.40625 79.261719 157.40625 C 78.90625 157.40625 78.546875 157.285156 78.261719 157.027344 C 77.648438 156.472656 77.59375 155.523438 78.148438 154.90625 C 83.785156 148.640625 87.488281 142.214844 89.175781 135.769531 C 76.695312 142.382812 69.152344 155.242188 68.648438 170.917969 Z M 71.039062 149.925781 C 71.535156 148.996094 72.0625 148.085938 72.625 147.203125 C 75.382812 142.859375 78.875 139.132812 82.941406 136.15625 C 74.578125 138.125 67.476562 141.175781 61.402344 145.382812 C 61.144531 145.5625 60.84375 145.648438 60.546875 145.648438 C 60.074219 145.648438 59.605469 145.425781 59.3125 145.003906 C 58.84375 144.324219 59.015625 143.390625 59.691406 142.917969 C 67.695312 137.371094 77.34375 133.757812 89.125 131.898438 C 88.964844 131.394531 88.839844 130.875 88.757812 130.339844 C 82.886719 130.265625 77.472656 129.714844 72.558594 128.695312 C 58.625 131.980469 49.066406 140.261719 43.394531 153.996094 C 54.476562 156.324219 62.722656 156.246094 71.039062 149.925781 Z M 3.074219 54.160156 C 3.074219 91.300781 23.558594 124.46875 52.992188 135.167969 C 56.980469 131.714844 61.605469 129.0625 66.855469 127.234375 C 65.574219 126.835938 64.324219 126.40625 63.128906 125.929688 C 54.347656 122.460938 48.148438 117.050781 44.707031 109.839844 C 44.527344 109.460938 44.511719 109.027344 44.667969 108.636719 C 44.824219 108.25 45.136719 107.941406 45.527344 107.792969 C 56.632812 103.601562 66.542969 102.574219 74.992188 104.734375 C 78.277344 105.578125 81.339844 106.910156 84.171875 108.707031 C 82.300781 97.984375 84.101562 88.234375 89.550781 79.6875 C 89.996094 78.988281 90.925781 78.78125 91.621094 79.226562 C 102.007812 85.8125 108.070312 93.421875 109.785156 101.976562 C 116.675781 96.542969 125.386719 93.453125 135.785156 92.765625 C 140.839844 80.90625 143.515625 67.582031 143.515625 54.160156 L 143.515625 49.347656 C 134.636719 60.3125 106.960938 68.109375 73.296875 68.109375 C 39.632812 68.109375 11.953125 60.3125 3.074219 49.347656 Z M 3.074219 41.707031 C 3.074219 47.585938 10.363281 53.488281 23.070312 57.902344 C 36.464844 62.550781 54.300781 65.113281 73.296875 65.113281 C 92.289062 65.113281 110.125 62.550781 123.519531 57.902344 C 136.226562 53.488281 143.515625 47.585938 143.515625 41.707031 L 143.515625 34.152344 C 134.636719 45.117188 106.960938 52.914062 73.296875 52.914062 C 39.632812 52.914062 11.953125 45.117188 3.074219 34.152344 Z M 51.21875 41.179688 C 53.042969 39.972656 55.035156 39.359375 56.597656 39.050781 C 54.84375 36.621094 52.445312 32.667969 52.804688 29.59375 C 52.957031 28.285156 53.578125 27.199219 54.605469 26.453125 C 59.050781 23.222656 69.59375 30.234375 73.296875 32.90625 C 77 30.234375 87.539062 23.222656 91.984375 26.453125 C 93.011719 27.199219 93.632812 28.285156 93.789062 29.59375 C 94.144531 32.667969 91.75 36.621094 89.996094 39.050781 C 91.558594 39.359375 93.546875 39.972656 95.375 41.179688 C 98.09375 42.976562 99.84375 46.292969 100.621094 48.039062 C 109.085938 46.816406 116.851562 45.019531 123.519531 42.703125 C 129.210938 40.730469 133.808594 38.453125 137.15625 36.015625 C 135.828125 33.984375 132.472656 29.621094 127.214844 27.941406 C 120.136719 25.675781 111.003906 27.941406 110.914062 27.964844 C 110.359375 28.109375 109.765625 27.917969 109.394531 27.476562 C 109.339844 27.40625 103.628906 20.738281 93.824219 19.195312 C 83.859375 17.625 73.964844 21.636719 73.867188 21.675781 C 73.5 21.828125 73.089844 21.828125 72.722656 21.679688 C 72.625 21.636719 62.734375 17.625 52.765625 19.195312 C 42.964844 20.738281 37.25 27.40625 37.195312 27.476562 C 36.828125 27.917969 36.234375 28.109375 35.675781 27.964844 C 35.585938 27.941406 26.457031 25.675781 19.375 27.941406 C 14.140625 29.613281 10.773438 33.984375 9.433594 36.019531 C 12.785156 38.457031 17.382812 40.734375 23.070312 42.703125 C 29.738281 45.019531 37.507812 46.816406 45.96875 48.039062 C 46.75 46.292969 48.496094 42.976562 51.21875 41.179688 Z M 7.09375 34.109375 C 8.757812 31.632812 12.53125 26.980469 18.460938 25.082031 C 25.082031 22.96875 32.914062 24.304688 35.527344 24.859375 C 37.382812 22.9375 43.195312 17.664062 52.300781 16.230469 C 61.808594 14.730469 70.933594 17.796875 73.296875 18.683594 C 75.65625 17.800781 84.78125 14.730469 94.289062 16.230469 C 103.394531 17.664062 109.207031 22.9375 111.0625 24.859375 C 113.675781 24.304688 121.511719 22.96875 128.128906 25.082031 C 134.058594 26.980469 137.835938 31.632812 139.496094 34.109375 C 142.121094 31.65625 143.515625 29.082031 143.515625 26.511719 C 143.515625 20.632812 136.226562 14.730469 123.519531 10.320312 C 110.125 5.667969 92.289062 3.105469 73.296875 3.105469 C 54.300781 3.105469 36.464844 5.667969 23.070312 10.320312 C 10.363281 14.730469 3.074219 20.632812 3.074219 26.511719 C 3.074219 29.082031 4.46875 31.65625 7.09375 34.109375 Z M 7.09375 34.109375 " fill-opacity="1" fill-rule="nonzero"/></g><path fill="#292929" d="M 43.046875 39.3125 C 42.84375 39.3125 42.636719 39.269531 42.4375 39.179688 L 35.027344 35.894531 C 34.269531 35.558594 33.929688 34.671875 34.265625 33.914062 C 34.601562 33.160156 35.488281 32.816406 36.246094 33.152344 L 43.65625 36.441406 C 44.414062 36.777344 44.753906 37.664062 44.417969 38.421875 C 44.171875 38.976562 43.625 39.3125 43.046875 39.3125 Z M 43.046875 39.3125 " fill-opacity="1" fill-rule="nonzero"/><path fill="#292929" d="M 102.933594 36.441406 L 110.34375 33.152344 C 111.105469 32.816406 111.988281 33.160156 112.324219 33.914062 C 112.660156 34.671875 112.320312 35.558594 111.5625 35.894531 L 104.152344 39.179688 C 103.953125 39.269531 103.746094 39.3125 103.542969 39.3125 C 102.96875 39.3125 102.421875 38.976562 102.171875 38.421875 C 101.835938 37.664062 102.175781 36.777344 102.933594 36.441406 Z M 102.933594 36.441406 " fill-opacity="1" fill-rule="nonzero"/></svg>